<?xml version="1.0" encoding="UTF-8"?><svg id="Layer_1" xmlns="http://www.w3.org/2000/svg" viewBox="0 0 195.41 28.12"><defs><style>.cls-1{fill:#f47821;}</style></defs><path class="cls-1" d="M0,27.71L9.63,.38h6.04l9.66,27.33h-5.25l-2.26-6.76H7.51l-2.26,6.76H0Zm16.5-10.72l-3.74-11.02h-.23l-3.7,11.02h7.66Z"/><path class="cls-1" d="M29.84,.38h10.46c5.93,0,8.87,3.02,8.87,7.1,0,3.32-2.11,5.17-4.79,5.81v.26c2.91,.15,5.85,2.57,5.85,6.72s-3.06,7.44-9.32,7.44h-11.06V.38Zm14.42,7.7c0-2.11-1.51-3.62-4.45-3.62h-5.06v7.55h4.95c2.6,0,4.57-1.51,4.57-3.93Zm.98,11.82c0-2.45-1.93-4.34-4.98-4.34h-5.51v8.04h5.4c3.59,0,5.1-1.55,5.1-3.7Z"/><path class="cls-1" d="M66.08,28.08c-7.17,0-12.53-5.25-12.53-14.04S58.91,0,66.08,0s12.53,5.21,12.53,14.04-5.36,14.04-12.53,14.04Zm0-23.67c-4.45,0-7.59,3.4-7.59,9.63s3.13,9.63,7.59,9.63,7.59-3.4,7.59-9.63-3.13-9.63-7.59-9.63Z"/><path class="cls-1" d="M105.19,.38V18.23c0,5.85-4.45,9.89-11.1,9.89s-11.1-4.04-11.1-9.89V.38h4.91V17.82c0,3.44,2.42,5.93,6.19,5.93s6.15-2.49,6.15-5.93V.38h4.95Z"/><path class="cls-1" d="M109.04,.38h21.78V4.49h-8.42V27.71h-4.91V4.49h-8.46V.38Z"/><path d="M149.88,.38l8.12,19.86h.34L166.45,.38h6.04V27.71h-4.72V8.91h-.26l-7.59,18.72h-3.51l-7.59-18.8h-.23V27.71h-4.76V.38h6.04Z"/><path d="M177.55,.38h17.78V4.49h-12.87v7.47h11.93v4.11h-11.93v7.47h12.95v4.15h-17.86V.38Z"/></svg>