<?xml version="1.0" encoding="UTF-8"?><svg id="Layer_1" xmlns="http://www.w3.org/2000/svg" viewBox="0 0 180 24.9"><defs><style>.cls-1{fill:#02bbb9;}</style></defs><path class="cls-1" d="M0,24.53L8.52,.33h5.35l8.56,24.2h-4.65l-2.01-5.98H6.65l-2.01,5.98H0ZM14.6,15.04l-3.31-9.76h-.2l-3.28,9.76h6.78Z"/><path class="cls-1" d="M33.42,.33h9.26c5.25,0,7.85,2.67,7.85,6.28,0,2.94-1.87,4.58-4.24,5.15v.23c2.57,.13,5.18,2.27,5.18,5.95s-2.71,6.58-8.25,6.58h-9.79V.33Zm12.77,6.82c0-1.87-1.34-3.21-3.94-3.21h-4.48v6.68h4.38c2.31,0,4.04-1.34,4.04-3.48Zm.87,10.46c0-2.17-1.7-3.84-4.41-3.84h-4.88v7.12h4.78c3.17,0,4.51-1.37,4.51-3.28Z"/><path class="cls-1" d="M65.5,24.86c-6.35,0-11.1-4.65-11.1-12.43S59.15,0,65.5,0s11.1,4.61,11.1,12.43-4.75,12.43-11.1,12.43Zm0-20.95c-3.94,0-6.72,3.01-6.72,8.52s2.77,8.52,6.72,8.52,6.72-3.01,6.72-8.52-2.77-8.52-6.72-8.52Z"/><path class="cls-1" d="M100.13,.33v15.81c0,5.18-3.94,8.76-9.83,8.76s-9.83-3.58-9.83-8.76V.33h4.34V15.77c0,3.04,2.14,5.25,5.48,5.25s5.45-2.21,5.45-5.25V.33h4.38Z"/><path class="cls-1" d="M103.54,.33h19.28V3.98h-7.45V24.53h-4.34V3.98h-7.49V.33Z"/><path d="M139.7,.33l7.19,17.58h.3L154.37,.33h5.35V24.53h-4.18V7.89h-.23l-6.72,16.58h-3.11l-6.72-16.64h-.2V24.53h-4.21V.33h5.35Z"/><path d="M164.19,.33h15.74V3.98h-11.4v6.62h10.56v3.64h-10.56v6.62h11.46v3.68h-15.81V.33Z"/></svg>